PathFileType	3	(X/Y/Z)	D:\minhoCalibration\240510\subject3_KPNP\preferred\preferred17.trc
DataRate	CameraRate	NumFrames	NumMarkers	Units	OrigDataRate	OrigDataStartFrame	OrigNumFrames
200.0	200.0	12	10	mm	200.0	221	120	
Frame#	Time	Left_Ankle_Outer1			Left_Ankle_Inner1			Left_Knee_Outer1			Left_Knee_Inner1			Left_Wrist1			Right_Wrist1			Right_Knee_Inner1			Right_Knee_Outer1			Right_Ankle_Inner1			Right_Ankle_Outer1			
		X1	Y1	Z1	X2	Y2	Z2	X3	Y3	Z3	X4	Y4	Z4	X5	Y5	Z5	X6	Y6	Z6	X7	Y7	Z7	X8	Y8	Z8	X9	Y9	Z9	X10	Y10	Z10	
221	1.095	-355.54538	120.23969	-525.83459	-403.26019	142.73238	-499.61533	-179.07735	520.88647	-479.61365	-233.67667	540.87048	-393.34595	-217.61229	887.48639	-729.71167	-363.35245	1125.6189	-476.71243	-302.82364	954.70087	-82.44371	-305.52808	1064.5237	-113.08934	-681.37317	919.28577	133.09152	-679.51331	1021.4216	149.54425
222	1.1	-354.66077	120.31328	-525.87225	-403.03143	142.26459	-499.98846	-179.46431	520.71326	-477.77713	-235.66121	540.62067	-392.08841	-221.47734	884.59216	-730.21838	-361.29697	1127.4513	-478.98676	-297.81772	962.11371	-84.11084	-299.21558	1067.7786	-118.43513	-648.42102	942.51617	173.93291	-642.78369	1046.9307	187.8613
223	1.105	-354.98828	119.40594	-525.93719	-402.96786	141.92825	-500.47971	-180.12495	520.39795	-475.82858	-237.64255	540.18445	-391.02789	-224.87065	881.66931	-729.93329	-358.12137	1128.2944	-482.3165	-294.50745	968.81763	-85.721992	-293.75986	1070.949	-123.68632	-612.25922	966.77246	214.40849	-601.052	1071.7178	221.76924
224	1.11	-355.21649	119.32274	-525.87866	-403.14404	141.74425	-500.7583	-180.30643	520.19507	-474.18423	-239.71765	539.70996	-389.56406	-227.89001	878.70306	-728.85559	-355.80075	1129.1423	-485.26651	-292.75659	974.62854	-87.094978	-290.92621	1072.835	-127.85186	-569.29736	991.48621	251.83647	-555.95685	1095.8538	250.9993
225	1.115	-355.59628	119.2086	-526.02887	-403.40576	141.61395	-500.89307	-180.53885	519.72192	-472.625	-241.40779	539.06757	-388.79428	-230.41141	875.82611	-726.95361	-353.6814	1129.4182	-488.12109	-292.22943	979.60559	-87.869011	-289.95032	1074.145	-130.87706	-524.95178	1017.5756	283.07181	-508.22186	1118.4989	274.56625
226	1.12	-355.65582	119.33102	-526.63177	-404.01141	141.50851	-500.81265	-180.45865	519.26312	-471.37134	-242.36226	538.46631	-388.09604	-232.60883	873.24524	-724.20038	-352.86218	1130.1354	-490.64957	-292.37503	984.16541	-88.287872	-290.66824	1075.3661	-132.81364	-468.93225	1036.4768	306.68362	-457.31522	1137.809	290.32794
227	1.125	-356.46341	119.44566	-526.43671	-404.61169	141.49026	-500.61841	-180.53996	518.69647	-470.29919	-243.1171	537.72571	-387.10504	-234.46561	870.97443	-720.74896	-352.42017	1131.2668	-492.01102	-292.81183	988.40039	-88.753052	-293.216	1077.1948	-134.12402	-424.21631	1054.0339	316.06607	-409.48441	1153.4083	295.1366
228	1.13	-357.74619	118.88456	-526.57635	-405.32477	141.45078	-500.35678	-180.5714	518.0426	-469.53625	-243.32236	536.92712	-386.16351	-235.81247	869.25226	-716.79901	-350.54294	1133.7738	-491.5621	-292.76031	992.14301	-89.697151	-297.06308	1082.6478	-134.46324	-406.14792	1068.9214	316.90915	-381.77148	1165.6316	290.81705
229	1.135	-357.99051	119.08935	-527.18707	-405.84286	141.28386	-500.4295	-180.80075	517.41602	-468.81128	-242.87576	536.07764	-384.81912	-237.09781	867.83289	-712.05743	-353.60565	1134.8113	-491.60568	-291.50827	994.32483	-90.489357	-300.27182	1090.8517	-135.52507	-409.48776	1083.5173	319.2598	-369.98227	1174.2974	287.29996
230	1.14	-359.08124	118.324	-527.15631	-406.26721	141.0168	-500.51724	-181.27777	516.75916	-467.98373	-241.66554	535.38391	-383.04187	-237.53099	866.80023	-706.96851	-353.82755	1136.7816	-490.10785	-288.22382	995.87292	-90.248779	-303.091	1098.0326	-136.50179	-404.93198	1085.1992	314.26129	-367.7728	1178.6542	287.73883
231	1.145	-359.0491	117.99338	-527.37	-406.43137	140.63663	-500.70621	-181.78149	516.20386	-466.99979	-240.35561	534.18115	-380.65427	-238.17073	865.35815	-700.68286	-357.51151	1136.8502	-489.20221	-283.2106	998.47296	-89.759544	-303.95294	1104.3771	-137.60094	-405.2428	1080.5101	308.48782	-369.7627	1176.6693	287.46582
232	1.15	-359.133	117.4733	-526.92523	-406.11795	140.19731	-501.02414	-182.4263	515.7229	-465.59085	-239.01593	532.96497	-378.77112	-236.32893	865.0033	-695.45465	-358.22742	1137.5764	-486.91916	-277.14835	1003.4323	-90.348778	-301.48105	1108.2495	-138.75754	-405.15692	1073.5947	305.76956	-374.42349	1172.7699	289.43552
